<svg width="1080" height="278" viewBox="0 0 1080 278" fill="none" xmlns="http://www.w3.org/2000/svg">
<path d="M27.14 226.07C22.8467 226.07 19.7033 225.457 17.71 224.23C15.7167 223.003 14.49 221.317 14.03 219.17C13.57 216.87 13.34 214.493 13.34 212.04V79.33C13.34 76.8767 13.57 74.6533 14.03 72.66C14.6433 70.5133 15.9467 68.8267 17.94 67.6C19.9333 66.22 23.0767 65.53 27.37 65.53H76.13C82.8767 65.53 89.47 66.68 95.91 68.98C102.35 71.28 108.1 74.73 113.16 79.33C118.373 83.93 122.437 89.6033 125.35 96.35C128.417 103.097 129.95 110.993 129.95 120.04C129.95 128.933 128.417 136.753 125.35 143.5C122.437 150.093 118.373 155.69 113.16 160.29C107.947 164.89 102.12 168.34 95.68 170.64C89.3933 172.94 82.8 174.09 75.9 174.09H41.17V212.27C41.17 214.723 40.8633 217.023 40.25 219.17C39.79 221.317 38.5633 223.003 36.57 224.23C34.73 225.457 31.5867 226.07 27.14 226.07ZM41.17 146.03H76.13C80.8833 146.03 85.1767 145.11 89.01 143.27C92.9967 141.277 96.2167 138.363 98.67 134.53C101.123 130.543 102.35 125.56 102.35 119.58C102.35 114.213 101.2 109.613 98.9 105.78C96.7533 101.793 93.6867 98.7267 89.7 96.58C85.8667 94.4333 81.2667 93.36 75.9 93.36H41.17V146.03ZM165.746 226.07C161.452 226.07 158.309 225.457 156.316 224.23C154.476 223.003 153.249 221.317 152.636 219.17C152.176 216.87 151.946 214.493 151.946 212.04V79.33C151.946 76.8767 152.252 74.6533 152.866 72.66C153.479 70.5133 154.706 68.8267 156.546 67.6C158.539 66.22 161.682 65.53 165.976 65.53H215.196C222.249 65.53 228.919 66.68 235.206 68.98C241.646 71.1267 247.396 74.5 252.456 79.1C257.516 83.5467 261.502 89.22 264.416 96.12C267.482 102.867 269.016 110.763 269.016 119.81C269.016 125.79 268.096 131.77 266.256 137.75C264.416 143.577 261.656 149.02 257.976 154.08C254.449 158.987 249.926 163.203 244.406 166.73C238.886 170.257 232.369 172.557 224.856 173.63H179.776V212.27C179.776 214.723 179.469 217.023 178.856 219.17C178.396 221.317 177.169 223.003 175.176 224.23C173.336 225.457 170.192 226.07 165.746 226.07ZM263.726 222.62C259.279 225.687 255.599 226.837 252.686 226.07C249.926 225.303 247.166 222.85 244.406 218.71L205.766 160.29L236.816 156.15L267.406 202.61C269.552 205.677 270.856 208.283 271.316 210.43C271.776 212.577 271.392 214.57 270.166 216.41C268.939 218.25 266.792 220.32 263.726 222.62ZM179.776 146.03H218.646C221.406 146.03 224.089 145.57 226.696 144.65C229.456 143.577 231.909 141.967 234.056 139.82C236.202 137.52 237.889 134.76 239.116 131.54C240.496 128.167 241.186 124.18 241.186 119.58C241.186 114.06 240.112 109.383 237.966 105.55C235.819 101.563 232.752 98.5733 228.766 96.58C224.932 94.4333 220.256 93.36 214.736 93.36H179.776V146.03ZM305.623 226.3C301.33 226.3 298.187 225.61 296.193 224.23C294.2 223.003 292.973 221.317 292.513 219.17C292.053 217.023 291.823 214.647 291.823 212.04V79.33C291.823 76.8767 292.053 74.5767 292.513 72.43C293.127 70.2833 294.353 68.5967 296.193 67.37C298.187 66.1433 301.407 65.53 305.853 65.53C310.147 65.53 313.213 66.1433 315.053 67.37C317.047 68.5967 318.273 70.2833 318.733 72.43C319.347 74.5767 319.653 76.9533 319.653 79.56V212.27C319.653 214.877 319.347 217.253 318.733 219.4C318.273 221.393 317.047 223.003 315.053 224.23C313.06 225.61 309.917 226.3 305.623 226.3ZM587.562 226.07C583.269 226.07 580.125 225.457 578.132 224.23C576.292 223.003 575.065 221.317 574.452 219.17C573.992 216.87 573.762 214.493 573.762 212.04V79.33C573.762 76.8767 574.069 74.6533 574.682 72.66C575.295 70.5133 576.522 68.8267 578.362 67.6C580.355 66.22 583.499 65.53 587.792 65.53H637.012C644.065 65.53 650.735 66.68 657.022 68.98C663.462 71.1267 669.212 74.5 674.272 79.1C679.332 83.5467 683.319 89.22 686.232 96.12C689.299 102.867 690.832 110.763 690.832 119.81C690.832 125.79 689.912 131.77 688.072 137.75C686.232 143.577 683.472 149.02 679.792 154.08C676.265 158.987 671.742 163.203 666.222 166.73C660.702 170.257 654.185 172.557 646.672 173.63H601.592V212.27C601.592 214.723 601.285 217.023 600.672 219.17C600.212 221.317 598.985 223.003 596.992 224.23C595.152 225.457 592.009 226.07 587.562 226.07ZM685.542 222.62C681.095 225.687 677.415 226.837 674.502 226.07C671.742 225.303 668.982 222.85 666.222 218.71L627.582 160.29L658.632 156.15L689.222 202.61C691.369 205.677 692.672 208.283 693.132 210.43C693.592 212.577 693.209 214.57 691.982 216.41C690.755 218.25 688.609 220.32 685.542 222.62ZM601.592 146.03H640.462C643.222 146.03 645.905 145.57 648.512 144.65C651.272 143.577 653.725 141.967 655.872 139.82C658.019 137.52 659.705 134.76 660.932 131.54C662.312 128.167 663.002 124.18 663.002 119.58C663.002 114.06 661.929 109.383 659.782 105.55C657.635 101.563 654.569 98.5733 650.582 96.58C646.749 94.4333 642.072 93.36 636.552 93.36H601.592V146.03ZM727.44 226.3C723.146 226.3 720.003 225.61 718.01 224.23C716.016 223.003 714.79 221.317 714.33 219.17C713.87 217.023 713.64 214.647 713.64 212.04V79.33C713.64 76.8767 713.87 74.5767 714.33 72.43C714.943 70.2833 716.17 68.5967 718.01 67.37C720.003 66.1433 723.223 65.53 727.67 65.53C731.963 65.53 735.03 66.1433 736.87 67.37C738.863 68.5967 740.09 70.2833 740.55 72.43C741.163 74.5767 741.47 76.9533 741.47 79.56V212.27C741.47 214.877 741.163 217.253 740.55 219.4C740.09 221.393 738.863 223.003 736.87 224.23C734.876 225.61 731.733 226.3 727.44 226.3ZM885.135 65.3C887.435 65.3 889.429 65.53 891.115 65.99C892.955 66.45 894.412 67.6 895.485 69.44C896.559 71.1267 897.095 73.8867 897.095 77.72C897.095 81.5533 896.559 84.39 895.485 86.23C894.412 87.9167 892.955 88.99 891.115 89.45C889.275 89.7567 887.205 89.91 884.905 89.91H842.585V212.5C842.585 215.107 842.279 217.483 841.665 219.63C841.205 221.623 839.979 223.233 837.985 224.46C836.145 225.687 833.002 226.3 828.555 226.3C824.415 226.3 821.349 225.61 819.355 224.23C817.362 223.003 816.135 221.393 815.675 219.4C815.215 217.253 814.985 214.877 814.985 212.27V89.91H772.205C770.059 89.91 768.065 89.68 766.225 89.22C764.385 88.76 762.852 87.6867 761.625 86C760.552 84.3133 760.015 81.5533 760.015 77.72C760.015 73.8867 760.552 71.1267 761.625 69.44C762.699 67.6 764.155 66.45 765.995 65.99C767.989 65.53 770.059 65.3 772.205 65.3H885.135ZM1038.83 67.14C1043.28 70.2067 1045.73 73.12 1046.19 75.88C1046.65 78.64 1045.58 81.86 1042.97 85.54L991.683 163.05V212.5C991.683 215.107 991.376 217.483 990.763 219.63C990.303 221.623 989.076 223.233 987.083 224.46C985.089 225.84 981.946 226.53 977.653 226.53C973.206 226.53 969.986 225.84 967.993 224.46C966.153 223.233 964.926 221.547 964.313 219.4C963.853 217.253 963.623 214.8 963.623 212.04V163.05L912.103 85.77C909.343 81.9367 908.269 78.64 908.883 75.88C909.649 73.12 912.179 70.2833 916.473 67.37C919.539 65.2233 922.146 63.92 924.293 63.46C926.593 63 928.663 63.3833 930.503 64.61C932.343 65.8367 934.106 67.83 935.793 70.59L977.193 136.14L1019.28 70.59C1021.12 67.83 1022.89 65.9133 1024.57 64.84C1026.41 63.6133 1028.48 63.23 1030.78 63.69C1033.08 63.9967 1035.77 65.1467 1038.83 67.14Z" fill="black"/>
<path d="M538.392 149.049C538.392 196.791 497.405 236.598 445.446 236.598C393.486 236.598 352.5 196.791 352.5 149.049C352.5 101.308 393.486 61.5 445.446 61.5C497.405 61.5 538.392 101.308 538.392 149.049Z" stroke="#3081D0" stroke-width="25"/>
</svg>
